<?xml version="1.0" encoding="UTF-8"?>
<svg id="Layer_1" data-name="Layer 1" xmlns="http://www.w3.org/2000/svg" viewBox="0 0 720 720">
  <defs>
    <style>
      .cls-1 {
        fill: #fff;
      }

      .cls-2 {
        fill: #5ea6db;
      }
    </style>
  </defs>
  <circle class="cls-2" cx="362.41" cy="352.92" r="329.77"/>
  <g>
    <path class="cls-1" d="M164.89,340.87c0-109.09,88.43-197.52,197.52-197.52s197.52,88.43,197.52,197.52c0,92.68-63.84,170.41-149.94,191.71l.05.02c-.7.16-1.42.31-2.12.46-2.52.59-5.05,1.16-7.6,1.66-43.02,8.37-77.76,15.09-77.76,15.09-21.19,3.5-51.05,7.75-88.44,11.01.06-23.22.12-46.45.17-69.67-42.45-36.23-69.41-90.09-69.41-150.27Z"/>
    <g>
      <circle class="cls-2" cx="296.27" cy="352.92" r="9"/>
      <circle class="cls-2" cx="362.41" cy="352.92" r="9"/>
      <circle class="cls-2" cx="428.55" cy="352.92" r="9"/>
    </g>
  </g>
</svg>